<svg width="20" height="20" viewBox="0 0 20 20" fill="none" xmlns="http://www.w3.org/2000/svg">
<path d="M19.7889 6.66666C19.7883 6.45982 19.7467 6.25514 19.6666 6.06444C19.5865 5.87373 19.4695 5.70078 19.3222 5.55555L15.2722 1.47222C14.9726 1.18691 14.5748 1.02777 14.1611 1.02777C13.7474 1.02777 13.3495 1.18691 13.05 1.47222L1.5722 12.9333C1.27908 13.2288 1.1146 13.6282 1.1146 14.0444C1.1146 14.4607 1.27908 14.86 1.5722 15.1555L4.18331 17.7778H1.66664C1.5193 17.7778 1.37799 17.8363 1.2738 17.9405C1.16962 18.0447 1.11108 18.186 1.11108 18.3333C1.11108 18.4807 1.16962 18.622 1.2738 18.7262C1.37799 18.8304 1.5193 18.8889 1.66664 18.8889H15.5555C15.7029 18.8889 15.8442 18.8304 15.9484 18.7262C16.0526 18.622 16.1111 18.4807 16.1111 18.3333C16.1111 18.186 16.0526 18.0447 15.9484 17.9405C15.8442 17.8363 15.7029 17.7778 15.5555 17.7778H9.29997L19.3 7.77777C19.4513 7.6344 19.5725 7.46228 19.6564 7.27149C19.7404 7.0807 19.7854 6.87507 19.7889 6.66666V6.66666ZM7.72775 17.7778H5.75553L2.36108 14.3833C2.31758 14.34 2.28306 14.2885 2.25951 14.2317C2.23595 14.175 2.22383 14.1142 2.22383 14.0528C2.22383 13.9914 2.23595 13.9305 2.25951 13.8738C2.28306 13.8171 2.31758 13.7656 2.36108 13.7222L5.4222 10.6555L10.1389 15.3667L7.72775 17.7778ZM18.5389 6.96666L10.9222 14.5833L6.21108 9.86666L13.8222 2.25555C13.9111 2.17032 14.0296 2.12274 14.1528 2.12274C14.2759 2.12274 14.3944 2.17032 14.4833 2.25555L18.5389 6.30555C18.627 6.39421 18.6768 6.51388 18.6778 6.63888C18.6778 6.70004 18.6655 6.76059 18.6416 6.8169C18.6178 6.87321 18.5828 6.92415 18.5389 6.96666V6.96666Z" fill="black"/>
</svg>
