<svg width="20" height="20" viewBox="0 0 20 20" fill="none" xmlns="http://www.w3.org/2000/svg">
<path fill-rule="evenodd" clip-rule="evenodd" d="M14.1162 1.61626C14.3507 1.38192 14.6685 1.25027 15 1.25027C15.3315 1.25027 15.6493 1.38192 15.8837 1.61626L18.3837 4.11626C18.6181 4.35067 18.7497 4.66855 18.7497 5.00001C18.7497 5.33146 18.6181 5.64935 18.3837 5.88376L7.13375 17.1338C6.9969 17.271 6.83 17.3746 6.64625 17.4363L2.89625 18.6863C2.67593 18.76 2.43941 18.7709 2.21325 18.7177C1.98708 18.6646 1.78021 18.5494 1.61586 18.3852C1.4515 18.2209 1.33617 18.0142 1.28281 17.788C1.22944 17.5619 1.24016 17.3254 1.31375 17.105L2.56375 13.355C2.62525 13.1708 2.72882 13.0035 2.86625 12.8663L14.1162 1.61626V1.61626ZM15 2.50001L17.5 5.00001L6.25 16.25L2.5 17.5L3.75 13.75L15 2.50001Z" fill="black"/>
<path fill-rule="evenodd" clip-rule="evenodd" d="M15.1825 7.94249L12.0575 4.8175L12.9425 3.9325L16.0675 7.05749L15.1837 7.94249H15.1825ZM3.75 12.5V13.125C3.75 13.2908 3.81585 13.4497 3.93306 13.5669C4.05027 13.6841 4.20924 13.75 4.375 13.75H5V14.375C5 14.5408 5.06585 14.6997 5.18306 14.8169C5.30027 14.9341 5.45924 15 5.625 15H6.25V15.625C6.25 15.7908 6.31585 15.9497 6.43306 16.0669C6.55027 16.1841 6.70924 16.25 6.875 16.25H7.5V14.375C7.5 14.2092 7.43415 14.0503 7.31694 13.9331C7.19973 13.8158 7.04076 13.75 6.875 13.75H6.25V13.125C6.25 12.9592 6.18415 12.8003 6.06694 12.6831C5.94973 12.5658 5.79076 12.5 5.625 12.5H3.75Z" fill="black"/>
</svg>
