<svg width="25" height="25" viewBox="0 0 25 25" fill="none" xmlns="http://www.w3.org/2000/svg">
<path d="M21.8091 7.16064L17.8394 3.19092C17.6563 3.00781 17.4316 2.87354 17.1875 2.80029V2.73438H3.51562C3.0835 2.73438 2.73438 3.0835 2.73438 3.51562V21.4844C2.73438 21.9165 3.0835 22.2656 3.51562 22.2656H21.4844C21.9165 22.2656 22.2656 21.9165 22.2656 21.4844V8.26416C22.2656 7.84912 22.1021 7.45361 21.8091 7.16064ZM9.375 4.49219H15.625V7.03125H9.375V4.49219ZM20.5078 20.5078H4.49219V4.49219H7.8125V7.8125C7.8125 8.24463 8.16162 8.59375 8.59375 8.59375H16.4062C16.8384 8.59375 17.1875 8.24463 17.1875 7.8125V5.02441L20.5078 8.34473V20.5078ZM12.5 10.791C10.5591 10.791 8.98438 12.3657 8.98438 14.3066C8.98438 16.2476 10.5591 17.8223 12.5 17.8223C14.4409 17.8223 16.0156 16.2476 16.0156 14.3066C16.0156 12.3657 14.4409 10.791 12.5 10.791ZM12.5 16.2598C11.4209 16.2598 10.5469 15.3857 10.5469 14.3066C10.5469 13.2275 11.4209 12.3535 12.5 12.3535C13.5791 12.3535 14.4531 13.2275 14.4531 14.3066C14.4531 15.3857 13.5791 16.2598 12.5 16.2598Z" fill="black"/>
</svg>
